<svg xmlns="http://www.w3.org/2000/svg" width="1000" height="600" viewBox="0 0 1000 600"><rect width="100%" height="100%" fill="#1e293b"/><path fill="#fbbf24" d="M208.34 281.87v15.45h1.61q.97 0 1.61-.27.63-.27 1.09-.85l10.18-12.88q.63-.82 1.34-1.13.7-.32 1.77-.32h5.91l-12.41 15.32q-1.1 1.4-2.27 1.99.84.31 1.51.86.68.54 1.29 1.44l12.8 17.26h-6.04q-1.23 0-1.82-.34-.6-.35-1.01-1.01l-10.43-13.62q-.49-.69-1.12-.97-.64-.28-1.84-.28h-2.17v16.22h-6.86v-36.87zm38.69 10.3q2.9 0 5.29.94 2.38.95 4.08 2.68 1.69 1.73 2.61 4.23t.92 5.59q0 3.11-.92 5.61t-2.61 4.26q-1.7 1.76-4.08 2.7-2.39.94-5.29.94-2.94 0-5.33-.94-2.4-.94-4.1-2.7-1.69-1.76-2.62-4.26t-.93-5.61q0-3.09.93-5.59t2.62-4.23q1.7-1.73 4.1-2.68 2.39-.94 5.33-.94m0 22.11q3.26 0 4.83-2.2 1.57-2.19 1.57-6.42t-1.57-6.45-4.83-2.22q-3.32 0-4.91 2.23-1.6 2.23-1.6 6.44t1.6 6.41q1.59 2.21 4.91 2.21m23.18-20.56.43 2.07q.79-.79 1.67-1.47.88-.67 1.86-1.14.98-.48 2.11-.74 1.12-.27 2.44-.27 2.15 0 3.8.73 1.66.72 2.77 2.04 1.11 1.31 1.68 3.13.58 1.83.58 4.02v16.65h-6.3v-16.65q0-2.4-1.1-3.71-1.1-1.32-3.34-1.32-1.63 0-3.06.74t-2.7 2.02v18.92h-6.3v-26.16h3.85q1.22 0 1.61 1.14m43.7 2.1-1.65 2.29q-.28.36-.55.56-.27.21-.78.21-.48 0-.94-.3-.46-.29-1.1-.66t-1.52-.66q-.88-.3-2.18-.3-1.66 0-2.9.6-1.25.6-2.08 1.72-.83 1.13-1.24 2.72t-.41 3.61q0 2.09.45 3.72.44 1.63 1.29 2.74.84 1.11 2.04 1.68 1.19.58 2.7.58 1.5 0 2.43-.37.94-.37 1.57-.82.64-.44 1.11-.81t1.06-.37q.77 0 1.15.58l1.81 2.3q-1.05 1.22-2.27 2.05-1.23.83-2.54 1.33-1.31.49-2.7.7-1.39.2-2.77.2-2.42 0-4.56-.9-2.14-.91-3.75-2.64-1.61-1.74-2.54-4.25t-.93-5.72q0-2.88.83-5.34.83-2.47 2.43-4.26 1.61-1.8 3.98-2.82t5.46-1.02q2.93 0 5.14.94 2.2.95 3.96 2.71m9.16 6.83h11.88q0-1.22-.34-2.31-.35-1.08-1.04-1.9-.68-.81-1.74-1.29-1.06-.47-2.46-.47-2.73 0-4.3 1.56-1.57 1.55-2 4.41m16.06 3.8h-16.19q.15 2.01.71 3.48.57 1.47 1.48 2.42.92.96 2.18 1.43 1.27.47 2.8.47t2.64-.36q1.1-.35 1.93-.79.83-.43 1.46-.79.62-.35 1.21-.35.79 0 1.17.58l1.81 2.3q-1.04 1.22-2.34 2.05-1.31.83-2.72 1.33-1.42.49-2.88.7-1.47.2-2.85.2-2.72 0-5.07-.9-2.35-.91-4.08-2.68t-2.73-4.39q-.99-2.61-.99-6.05 0-2.68.86-5.04.87-2.36 2.49-4.1 1.62-1.75 3.95-2.77 2.34-1.02 5.27-1.02 2.47 0 4.56.79t3.6 2.31q1.5 1.51 2.36 3.72.85 2.21.85 5.04 0 1.42-.3 1.92-.31.5-1.18.5m11.76-12.29.38 2.96q1.22-2.35 2.91-3.69 1.68-1.34 3.98-1.34 1.81 0 2.9.79l-.41 4.72q-.12.46-.36.65-.25.19-.66.19-.38 0-1.13-.13-.75-.12-1.47-.12-1.04 0-1.86.3-.81.31-1.46.88-.65.58-1.15 1.39-.5.82-.93 1.86v16.12h-6.3v-26.16h3.7q.97 0 1.35.34.38.35.51 1.24m22.18 24.99q-3.41 0-5.24-1.93-1.82-1.92-1.82-5.31v-14.62h-2.68q-.51 0-.86-.33-.36-.33-.36-.99v-2.5l4.21-.69 1.32-7.14q.13-.51.49-.79.35-.28.91-.28h3.27v8.24h6.99v4.48h-6.99v14.18q0 1.23.6 1.91.6.69 1.64.69.59 0 .98-.14.4-.14.69-.29.3-.15.53-.29.22-.14.45-.14.28 0 .46.14t.39.42l1.88 3.06q-1.37 1.14-3.16 1.73-1.78.59-3.7.59m41.26-26.57h4.97l-10.37 26.16h-5.72l-10.37-26.16h5.2q.71 0 1.18.33.48.33.63.84l5.05 13.97q.41 1.23.71 2.4.31 1.17.54 2.35.25-1.18.56-2.35.3-1.17.74-2.4l5.15-13.97q.18-.51.64-.84.45-.33 1.09-.33m28.56-10.71v15.45h1.61q.97 0 1.61-.27.63-.27 1.09-.85l10.18-12.88q.63-.82 1.34-1.13.7-.32 1.77-.32h5.91l-12.42 15.32q-1.09 1.4-2.26 1.99.84.31 1.51.86.68.54 1.29 1.44l12.8 17.26h-6.04q-1.23 0-1.83-.34-.59-.35-1-1.01l-10.43-13.62q-.49-.69-1.12-.97-.64-.28-1.84-.28h-2.17v16.22h-6.86v-36.87zm43.35 10.71h6.3v26.16h-3.85q-1.25 0-1.58-1.15l-.43-2.09q-1.61 1.63-3.55 2.64t-4.56 1.01q-2.15 0-3.79-.73t-2.77-2.05q-1.12-1.33-1.69-3.15-.58-1.82-.58-4.02v-16.62h6.3v16.62q0 2.4 1.11 3.71 1.11 1.32 3.33 1.32 1.63 0 3.06-.73t2.7-2zm12.6-11.73h6.3v37.89h-6.3zm21.32 38.3q-3.42 0-5.24-1.93-1.83-1.92-1.83-5.31v-14.62h-2.67q-.51 0-.87-.33t-.36-.99v-2.5l4.21-.69 1.33-7.14q.12-.51.48-.79t.92-.28h3.26v8.24h6.99v4.48h-6.99v14.18q0 1.23.6 1.91.6.69 1.65.69.58 0 .98-.14.39-.14.69-.29.29-.15.52-.29t.46-.14q.28 0 .46.14t.38.42l1.89 3.06q-1.38 1.14-3.17 1.73-1.78.59-3.69.59m26.49-26.57h6.3v26.16h-3.85q-1.25 0-1.58-1.15l-.43-2.09q-1.61 1.63-3.55 2.64t-4.56 1.01q-2.15 0-3.79-.73-1.65-.73-2.77-2.05-1.12-1.33-1.69-3.15-.58-1.82-.58-4.02v-16.62h6.3v16.62q0 2.4 1.11 3.71 1.11 1.32 3.33 1.32 1.63 0 3.06-.73t2.7-2zm18.08 1.58.38 2.96q1.23-2.35 2.91-3.69t3.98-1.34q1.81 0 2.91.79l-.41 4.72q-.13.46-.37.65t-.65.19q-.38 0-1.14-.13-.75-.12-1.46-.12-1.05 0-1.86.3-.82.31-1.47.88-.65.58-1.15 1.39-.5.82-.93 1.86v16.12h-6.3v-26.16h3.7q.97 0 1.35.34.38.35.51 1.24m18.92-.44.44 2.07q.79-.79 1.67-1.47.88-.67 1.86-1.14.98-.48 2.1-.74 1.12-.27 2.45-.27 2.14 0 3.8.73 1.66.72 2.77 2.04 1.1 1.31 1.68 3.13.57 1.83.57 4.02v16.65h-6.3v-16.65q0-2.4-1.09-3.71-1.1-1.32-3.34-1.32-1.64 0-3.06.74-1.43.74-2.71 2.02v18.92h-6.29v-26.16h3.85q1.22 0 1.6 1.14m23.54-1.14h6.3v26.16h-6.3zm6.04-11.12h6.12l-6.3 6.65q-.48.51-.93.71-.44.19-1.16.19h-3.77l3.62-6.2q.38-.66.89-1.01.51-.34 1.53-.34m13.01 37.28h-6.3v-26.16h3.85q1.22 0 1.61 1.14l.4 1.94q.69-.76 1.44-1.4.76-.64 1.61-1.1.86-.46 1.84-.72.98-.27 2.15-.27 2.48 0 4.07 1.34t2.38 3.55q.62-1.3 1.53-2.23.92-.93 2.02-1.51 1.09-.59 2.33-.87t2.49-.28q2.16 0 3.85.66 1.68.66 2.83 1.94 1.15 1.27 1.75 3.11.59 1.84.59 4.21v16.65h-6.29v-16.65q0-2.5-1.1-3.76-1.1-1.27-3.21-1.27-.97 0-1.8.34-.83.33-1.45.95-.63.63-.99 1.57-.35.94-.35 2.17v16.65h-6.33v-16.65q0-2.63-1.06-3.83-1.05-1.2-3.09-1.2-1.38 0-2.57.68-1.18.68-2.2 1.85zm65.23-7.75v-11.73q-1.07-1.3-2.34-1.84-1.26-.53-2.71-.53-1.43 0-2.58.53-1.15.54-1.96 1.62-.82 1.08-1.25 2.76-.43 1.67-.43 3.93 0 2.3.37 3.89.36 1.6 1.05 2.6.69 1.01 1.69 1.46.99.44 2.21.44 1.97 0 3.35-.81 1.37-.82 2.6-2.32m0-30.14h6.29v37.89h-3.85q-1.25 0-1.58-1.15l-.53-2.52q-1.58 1.81-3.64 2.93-2.05 1.12-4.78 1.12-2.14 0-3.92-.89-1.79-.89-3.08-2.59-1.28-1.69-1.99-4.19-.7-2.5-.7-5.72 0-2.9.79-5.4t2.27-4.34q1.48-1.83 3.55-2.86 2.06-1.04 4.64-1.04 2.19 0 3.75.69 1.55.69 2.78 1.86zm24.09 11.32q2.91 0 5.3.94 2.38.95 4.08 2.68 1.69 1.73 2.61 4.23t.92 5.59q0 3.11-.92 5.61t-2.61 4.26q-1.7 1.76-4.08 2.7-2.39.94-5.3.94-2.93 0-5.33-.94-2.39-.94-4.09-2.7-1.69-1.76-2.62-4.26-.94-2.5-.94-5.61 0-3.09.94-5.59.93-2.5 2.62-4.23 1.7-1.73 4.09-2.68 2.4-.94 5.33-.94m0 22.11q3.27 0 4.84-2.2 1.56-2.19 1.56-6.42t-1.56-6.45q-1.57-2.22-4.84-2.22-3.31 0-4.9 2.23-1.6 2.23-1.6 6.44t1.6 6.41q1.59 2.21 4.9 2.21m24.02 4.46h-6.29v-26.16h3.85q1.22 0 1.6 1.14l.41 1.94q.69-.76 1.44-1.4t1.61-1.1q.85-.46 1.83-.72.99-.27 2.16-.27 2.47 0 4.07 1.34 1.59 1.34 2.38 3.55.61-1.3 1.53-2.23t2.02-1.51q1.09-.59 2.33-.87t2.48-.28q2.17 0 3.86.66 1.68.66 2.83 1.94 1.14 1.27 1.74 3.11t.6 4.21v16.65h-6.3v-16.65q0-2.5-1.09-3.76-1.1-1.27-3.22-1.27-.97 0-1.79.34-.83.33-1.46.95-.62.63-.98 1.57t-.36 2.17v16.65h-6.32v-16.65q0-2.63-1.06-3.83t-3.1-1.2q-1.37 0-2.56.68t-2.21 1.85zm41.39-16.09h11.88q0-1.22-.34-2.31-.34-1.08-1.03-1.9-.69-.81-1.75-1.29-1.06-.47-2.46-.47-2.73 0-4.3 1.56-1.57 1.55-2 4.41m16.07 3.8h-16.2q.16 2.01.72 3.48t1.48 2.42q.91.96 2.18 1.43 1.26.47 2.79.47t2.64-.36q1.11-.35 1.94-.79.83-.43 1.45-.79.62-.35 1.21-.35.79 0 1.17.58l1.81 2.3q-1.04 1.22-2.34 2.05t-2.72 1.33q-1.41.49-2.88.7-1.46.2-2.84.2-2.73 0-5.08-.9-2.34-.91-4.08-2.68-1.73-1.77-2.72-4.39-1-2.61-1-6.05 0-2.68.87-5.04.86-2.36 2.48-4.1 1.62-1.75 3.96-2.77 2.33-1.02 5.26-1.02 2.48 0 4.57.79t3.59 2.31q1.51 1.51 2.36 3.72.86 2.21.86 5.04 0 1.42-.31 1.92t-1.17.5m-5.15-24.58h4.2l-5.84 7.09h-5.91l-5.84-7.09h4.36q.38 0 .73.12.34.13.54.31l2.71 2.83q.12.13.26.29.14.17.3.35.12-.18.27-.35.14-.16.26-.29l2.68-2.83q.2-.15.56-.29t.72-.14"/></svg>